<svg xmlns="http://www.w3.org/2000/svg" xmlns:xlink="http://www.w3.org/1999/xlink" width="2000" zoomAndPan="magnify" viewBox="0 0 1500 1499.999933" height="2000" preserveAspectRatio="xMidYMid meet" version="1.0"><path fill="#5556c0" d="M 921.660156 1096.648438 C 925.582031 1093.507812 928.328125 1091.152344 931.46875 1089.191406 C 934.214844 1087.621094 937.351562 1086.839844 940.492188 1086.054688 C 953.441406 1082.523438 966.78125 1078.992188 979.726562 1075.460938 C 987.96875 1073.105469 996.207031 1070.75 1004.445312 1067.613281 C 1016.21875 1062.902344 1028.382812 1059.371094 1037.40625 1049.957031 C 1038.191406 1049.171875 1038.582031 1048.386719 1039.757812 1046.816406 C 1031.914062 1043.679688 1024.457031 1042.894531 1017.003906 1043.285156 C 1006.410156 1043.679688 996.207031 1044.464844 985.613281 1045.640625 C 978.160156 1046.425781 971.097656 1047.601562 963.640625 1049.171875 C 956.972656 1050.347656 950.691406 1050.347656 944.414062 1048.386719 C 944.414062 1047.601562 944.414062 1047.210938 944.414062 1046.425781 C 946.378906 1046.03125 948.339844 1045.640625 949.910156 1045.246094 C 955.792969 1044.464844 961.679688 1044.464844 965.996094 1039.363281 C 966.78125 1038.578125 967.957031 1038.183594 968.742188 1038.183594 C 978.550781 1035.832031 988.753906 1033.476562 998.5625 1030.730469 C 1006.410156 1028.375 1013.863281 1024.84375 1021.320312 1021.707031 C 1027.203125 1019.351562 1033.089844 1016.605469 1038.582031 1013.859375 C 1042.113281 1011.898438 1045.253906 1009.542969 1048.785156 1007.582031 C 1052.707031 1005.226562 1051.53125 1002.480469 1048.785156 1001.304688 C 1044.46875 999.339844 1039.757812 997.378906 1035.050781 997.773438 C 1018.964844 998.554688 1002.878906 999.734375 986.789062 1001.695312 C 971.488281 1003.265625 956.578125 1006.011719 941.277344 1007.582031 C 936.566406 1007.972656 931.46875 1006.796875 926.367188 1006.402344 C 926.367188 1005.617188 926.367188 1004.835938 926.367188 1004.050781 C 927.152344 1003.65625 927.9375 1002.871094 928.722656 1002.480469 C 937.351562 999.339844 946.378906 997.378906 954.617188 993.457031 C 968.742188 987.179688 982.082031 979.722656 995.816406 973.054688 C 996.601562 972.660156 997.382812 971.875 998.167969 971.484375 C 1001.308594 970.304688 1004.445312 968.34375 1002.484375 964.8125 C 1001.308594 962.851562 998.167969 961.675781 995.816406 961.28125 C 991.105469 961.28125 986.007812 962.066406 981.296875 962.851562 C 977.765625 963.242188 974.628906 964.421875 971.097656 964.8125 C 955.007812 967.558594 939.316406 969.523438 923.226562 972.660156 C 911.066406 975.015625 899.292969 978.546875 887.523438 980.898438 C 879.675781 982.46875 871.828125 983.253906 863.980469 983.648438 C 862.019531 983.648438 860.058594 981.683594 858.097656 980.507812 C 859.664062 978.9375 860.449219 976.585938 862.410156 975.40625 C 877.714844 967.167969 891.839844 957.75 902.824219 944.804688 C 906.75 940.09375 909.101562 933.816406 911.066406 927.539062 C 912.632812 923.222656 909.101562 922.046875 905.570312 924.007812 C 893.015625 930.679688 880.460938 937.742188 867.90625 944.019531 C 858.097656 949.117188 847.894531 953.433594 838.085938 957.75 C 830.238281 961.28125 822.390625 964.421875 814.542969 967.167969 C 803.164062 970.699219 791.394531 974.230469 780.015625 976.976562 C 752.941406 984.039062 724.691406 985.214844 697.226562 984.824219 C 670.9375 984.039062 645.042969 980.507812 618.753906 978.152344 C 613.261719 977.761719 607.769531 976.976562 602.667969 975.800781 C 588.152344 972.660156 573.242188 969.128906 558.722656 965.597656 C 546.167969 962.460938 533.21875 959.320312 520.664062 955.789062 C 512.03125 953.433594 503.792969 949.902344 495.160156 946.765625 C 488.097656 944.019531 480.644531 941.664062 473.582031 938.917969 C 459.847656 933.425781 445.722656 927.539062 431.992188 921.652344 C 426.890625 919.691406 421.789062 917.335938 417.082031 914.984375 C 402.957031 908.3125 388.832031 901.644531 375.097656 894.1875 C 357.835938 884.773438 340.960938 875.355469 324.484375 865.152344 C 306.828125 854.558594 289.171875 843.574219 272.300781 831.804688 C 256.996094 821.207031 242.085938 809.4375 227.179688 797.273438 C 213.835938 786.679688 200.890625 775.695312 188.332031 763.925781 C 174.601562 750.976562 160.867188 737.242188 147.921875 723.511719 C 134.1875 708.601562 120.457031 692.90625 107.898438 676.820312 C 98.484375 665.050781 89.851562 652.492188 81.613281 639.9375 C 71.800781 624.242188 62.386719 608.546875 53.363281 592.460938 C 47.867188 582.261719 43.160156 571.667969 38.453125 560.679688 C 32.957031 548.515625 27.859375 536.355469 23.148438 524.191406 C 20.402344 517.519531 18.441406 510.851562 16.871094 504.179688 C 11.378906 478.675781 3.140625 453.566406 2.746094 426.886719 C 2.746094 408.445312 0 390.003906 0.785156 371.953125 C 2.355469 351.160156 6.277344 331.148438 9.023438 311.53125 C 11.378906 293.875 16.871094 277.003906 23.933594 260.914062 C 31.390625 243.652344 40.414062 226.386719 50.222656 210.300781 C 58.070312 197.351562 67.484375 185.191406 77.6875 173.8125 C 89.066406 161.257812 102.015625 149.878906 114.570312 138.105469 C 130.65625 123.589844 149.488281 112.601562 168.714844 102.402344 C 183.625 94.554688 199.710938 88.277344 215.40625 82 C 240.910156 71.796875 267.199219 66.695312 293.09375 60.8125 C 294.273438 60.417969 295.054688 60.417969 296.234375 60.027344 C 337.429688 55.316406 378.628906 49.824219 420.21875 54.140625 C 442.976562 56.496094 465.339844 61.988281 487.707031 67.089844 C 499.476562 69.835938 510.855469 73.757812 521.839844 78.859375 C 541.851562 87.882812 561.46875 97.691406 580.695312 107.894531 C 592.464844 114.171875 604.238281 121.234375 615.222656 129.082031 C 629.347656 138.890625 643.082031 149.484375 656.421875 160.863281 C 672.117188 174.597656 687.8125 188.328125 702.328125 203.632812 C 716.453125 218.148438 729.007812 234.234375 741.5625 250.320312 C 752.941406 264.839844 762.75 280.535156 772.953125 295.835938 C 774.523438 298.191406 775.699219 300.9375 777.269531 303.292969 C 778.445312 302.898438 779.230469 302.507812 780.40625 302.113281 C 786.6875 295.445312 792.964844 288.382812 799.632812 282.101562 C 810.226562 271.902344 821.214844 262.09375 832.59375 252.675781 C 842.402344 244.828125 852.601562 237.375 863.195312 230.3125 C 874.183594 223.25 885.953125 216.578125 897.722656 210.300781 C 908.710938 204.414062 920.089844 199.316406 931.46875 194.605469 C 939.707031 191.074219 948.339844 187.9375 956.972656 185.191406 C 965.210938 182.445312 973.449219 179.304688 981.691406 176.949219 C 991.5 173.8125 1001.699219 170.28125 1011.902344 168.320312 C 1027.597656 165.179688 1043.683594 163.609375 1059.769531 160.863281 C 1106.070312 152.230469 1152.761719 154.976562 1199.449219 158.117188 C 1218.285156 159.292969 1236.726562 164.003906 1255.558594 167.535156 C 1269.292969 170.28125 1283.023438 173.417969 1296.757812 176.949219 C 1306.171875 179.304688 1315.199219 183.226562 1324.613281 186.757812 C 1330.105469 188.722656 1335.601562 190.289062 1341.09375 192.644531 C 1356.789062 199.707031 1372.484375 205.59375 1387.390625 213.832031 C 1401.910156 222.070312 1414.859375 232.664062 1428.199219 242.082031 C 1444.675781 253.460938 1456.839844 268.761719 1467.042969 285.632812 C 1470.964844 292.304688 1472.925781 300.152344 1476.457031 306.824219 C 1485.875 326.046875 1483.519531 346.058594 1481.167969 366.070312 C 1479.988281 375.878906 1476.457031 385.6875 1472.140625 394.710938 C 1465.863281 407.660156 1458.410156 420.214844 1450.171875 431.984375 C 1443.5 441.792969 1435.261719 450.820312 1427.414062 459.84375 C 1419.171875 468.867188 1410.148438 477.890625 1401.125 486.132812 C 1392.886719 493.980469 1383.46875 501.042969 1374.835938 508.105469 C 1368.953125 512.8125 1363.457031 517.519531 1357.574219 521.835938 C 1350.117188 527.328125 1342.664062 532.824219 1335.207031 537.921875 C 1327.359375 543.417969 1319.511719 548.515625 1311.667969 553.617188 C 1299.503906 561.074219 1287.339844 568.527344 1274.785156 575.984375 C 1266.542969 580.691406 1258.699219 585.792969 1250.457031 590.5 C 1240.648438 595.601562 1230.839844 600.703125 1221.03125 605.410156 C 1210.828125 610.511719 1200.628906 616.003906 1190.035156 621.105469 C 1185.324219 623.457031 1180.226562 625.8125 1175.125 627.773438 C 1163.351562 632.875 1151.976562 637.582031 1140.203125 642.292969 C 1130.003906 646.214844 1119.800781 649.746094 1109.992188 654.0625 C 1097.4375 659.164062 1085.273438 664.65625 1072.71875 669.363281 C 1064.871094 672.503906 1056.632812 674.464844 1048.785156 677.210938 C 1038.976562 680.351562 1029.164062 683.882812 1018.964844 686.628906 C 1009.546875 689.375 1000.523438 692.121094 991.105469 694.867188 C 985.222656 696.4375 978.941406 698.007812 973.058594 699.578125 C 960.894531 702.324219 949.125 705.070312 936.960938 707.425781 C 918.910156 710.957031 900.472656 714.09375 882.421875 717.234375 C 874.96875 718.410156 867.121094 719.195312 859.664062 719.585938 C 831.808594 721.15625 803.949219 723.117188 776.09375 723.117188 C 755.6875 723.117188 734.894531 720.765625 714.492188 717.625 C 702.328125 716.054688 690.558594 711.347656 678.394531 707.816406 C 669.371094 705.070312 659.953125 702.324219 650.929688 698.792969 C 640.726562 694.476562 630.527344 689.375 620.324219 684.273438 C 611.691406 679.957031 603.058594 674.859375 594.035156 670.542969 C 591.683594 669.363281 587.367188 668.972656 585.796875 670.148438 C 584.226562 671.328125 583.441406 676.035156 584.621094 678.390625 C 587.757812 684.667969 590.898438 691.335938 596.390625 695.652344 C 606.589844 703.5 617.96875 709.777344 628.5625 716.449219 C 630.132812 717.234375 630.917969 718.800781 632.09375 719.980469 C 630.527344 721.15625 628.5625 723.511719 626.996094 723.511719 C 617.183594 722.332031 607.375 721.550781 597.960938 719.585938 C 587.367188 717.625 576.773438 714.09375 566.179688 711.738281 C 550.875 707.816406 535.574219 703.890625 520.273438 700.753906 C 515.171875 699.578125 510.070312 699.96875 504.578125 699.96875 C 503.402344 699.96875 501.046875 701.929688 501.046875 703.109375 C 500.652344 705.070312 501.046875 707.816406 502.617188 708.992188 C 508.5 713.308594 514.386719 717.625 520.664062 721.15625 C 530.867188 726.257812 541.460938 730.574219 551.660156 735.675781 C 556.761719 738.027344 561.46875 741.167969 566.570312 745.484375 C 563.824219 745.875 561.078125 746.269531 558.722656 745.875 C 549.699219 744.699219 541.066406 743.128906 532.042969 741.167969 C 526.550781 739.988281 520.664062 738.027344 515.171875 736.851562 C 512.816406 736.457031 510.464844 736.066406 508.109375 735.675781 C 496.335938 734.890625 484.175781 734.105469 472.402344 733.710938 C 468.085938 733.710938 463.773438 733.710938 459.847656 734.496094 C 457.886719 734.890625 454.746094 736.457031 454.355469 738.421875 C 453.960938 740.382812 455.140625 743.519531 456.710938 744.699219 C 464.949219 749.800781 472.796875 755.292969 481.429688 759.214844 C 495.945312 765.492188 510.855469 770.59375 525.765625 776.085938 C 528.511719 776.871094 531.257812 777.265625 534.003906 777.65625 C 536.75 778.441406 539.496094 779.226562 542.246094 780.011719 C 542.246094 780.796875 542.246094 781.582031 542.246094 782.757812 C 537.929688 783.148438 533.21875 784.328125 528.902344 783.542969 C 519.09375 781.972656 509.285156 779.226562 499.085938 778.441406 C 488.492188 777.65625 477.898438 778.832031 467.304688 779.226562 C 466.125 779.226562 464.164062 780.796875 464.164062 781.1875 C 464.949219 783.542969 465.339844 786.289062 467.304688 787.859375 C 469.65625 790.210938 472.796875 791.78125 475.933594 793.351562 C 493.589844 801.199219 511.246094 810.222656 530.472656 814.539062 C 537.929688 816.109375 545.777344 818.460938 552.839844 821.207031 C 557.546875 823.171875 561.863281 826.703125 566.570312 830.234375 C 564.214844 830.625 562.648438 830.625 560.683594 831.019531 C 543.027344 831.800781 525.765625 832.585938 508.109375 833.765625 C 506.148438 833.765625 503.792969 833.765625 502.222656 834.941406 C 500.652344 836.117188 499.476562 838.472656 499.085938 840.042969 C 499.085938 841.21875 500.652344 843.179688 502.222656 843.574219 C 510.464844 847.105469 518.703125 849.851562 527.726562 850.242188 C 532.828125 850.242188 538.320312 852.988281 543.421875 853.773438 C 550.875 854.953125 558.722656 855.738281 566.179688 856.519531 C 598.746094 860.445312 630.917969 866.722656 663.484375 867.898438 C 725.476562 869.863281 787.46875 869.078125 849.464844 868.683594 C 876.929688 868.292969 904.785156 865.152344 932.253906 863.191406 C 952.261719 861.621094 972.273438 860.050781 992.675781 858.089844 C 1012.292969 856.128906 1031.519531 853.773438 1051.136719 851.8125 C 1064.476562 850.242188 1077.820312 848.675781 1091.160156 846.710938 C 1110.777344 843.964844 1130.003906 840.433594 1149.621094 837.296875 C 1150.40625 837.296875 1150.796875 836.902344 1151.582031 836.902344 C 1171.199219 834.550781 1190.820312 832.195312 1210.042969 829.054688 C 1227.308594 826.308594 1244.570312 822.777344 1261.445312 819.246094 C 1262.621094 819.246094 1263.40625 818.855469 1264.191406 818.460938 C 1281.453125 816.109375 1298.71875 814.144531 1315.589844 811.007812 C 1330.890625 808.261719 1346.195312 804.730469 1361.496094 801.589844 C 1362.28125 801.589844 1362.671875 801.199219 1363.066406 801.199219 C 1377.191406 798.84375 1391.316406 796.488281 1405.046875 793.742188 C 1420.351562 790.605469 1435.652344 787.074219 1450.953125 783.933594 C 1454.484375 783.148438 1457.625 782.757812 1461.15625 781.972656 C 1468.21875 780.402344 1474.890625 779.226562 1481.558594 777.65625 C 1487.835938 776.085938 1494.113281 774.515625 1500 780.402344 C 1494.113281 791.390625 1489.015625 801.984375 1482.738281 812.183594 C 1478.027344 820.03125 1472.535156 827.488281 1467.433594 834.941406 C 1462.332031 842.789062 1457.625 851.027344 1452.523438 858.875 C 1447.425781 867.113281 1441.929688 874.960938 1436.4375 882.808594 C 1429.375 893.011719 1422.3125 903.210938 1415.25 913.414062 C 1410.148438 920.476562 1405.046875 927.929688 1399.949219 934.992188 C 1392.886719 944.019531 1385.824219 953.042969 1378.761719 962.066406 C 1373.660156 968.738281 1368.167969 975.40625 1362.671875 982.078125 C 1348.941406 998.554688 1335.601562 1015.429688 1321.476562 1031.515625 C 1306.171875 1049.5625 1290.085938 1066.828125 1274 1084.089844 C 1259.480469 1099.785156 1244.574219 1115.480469 1229.269531 1130.78125 C 1215.929688 1144.121094 1202.199219 1156.679688 1188.464844 1169.625 C 1173.164062 1184.535156 1157.859375 1199.839844 1142.167969 1214.746094 C 1131.574219 1224.558594 1120.195312 1233.1875 1109.601562 1242.214844 C 1100.183594 1250.453125 1090.765625 1259.085938 1081.351562 1266.933594 C 1066.441406 1279.09375 1051.136719 1290.867188 1036.230469 1303.027344 C 1027.988281 1309.699219 1019.75 1316.371094 1011.117188 1322.648438 C 997.386719 1332.457031 983.652344 1342.265625 969.917969 1351.683594 C 956.578125 1360.707031 943.632812 1369.730469 929.898438 1378.363281 C 918.128906 1385.816406 906.355469 1392.488281 894.195312 1399.550781 C 884.382812 1405.042969 874.574219 1410.929688 864.375 1416.03125 C 858.488281 1419.167969 851.820312 1421.128906 845.539062 1423.875 C 840.832031 1425.839844 836.515625 1428.191406 831.808594 1429.761719 C 824.351562 1432.902344 816.503906 1436.039062 809.050781 1439.179688 C 808.265625 1439.570312 807.480469 1439.964844 806.695312 1439.964844 C 783.546875 1445.457031 760.398438 1450.164062 736.855469 1445.457031 C 720.769531 1442.316406 704.683594 1438.394531 688.988281 1432.902344 C 671.332031 1426.625 654.851562 1418.382812 637.980469 1410.535156 C 625.03125 1404.257812 612.085938 1397.980469 599.53125 1390.527344 C 587.367188 1383.855469 575.59375 1376.007812 563.433594 1368.554688 C 552.054688 1361.492188 540.675781 1354.035156 529.6875 1346.582031 C 519.878906 1339.910156 510.464844 1332.847656 501.046875 1325.785156 C 488.882812 1316.761719 476.71875 1307.34375 464.949219 1297.929688 C 451.214844 1286.550781 437.484375 1274.777344 424.144531 1263.402344 C 416.6875 1256.730469 408.839844 1250.453125 401.386719 1243.78125 C 389.222656 1232.796875 377.058594 1221.417969 365.289062 1210.039062 C 353.519531 1198.660156 342.140625 1187.28125 330.761719 1175.511719 C 323.699219 1168.449219 317.027344 1160.992188 309.964844 1153.539062 C 302.902344 1146.085938 295.839844 1139.023438 288.777344 1131.960938 C 279.753906 1122.542969 271.515625 1112.734375 262.492188 1103.316406 C 265.628906 1097.824219 269.945312 1098.214844 274.261719 1099.394531 C 285.640625 1102.53125 296.625 1106.0625 307.613281 1109.59375 C 308.003906 1109.59375 308.789062 1109.988281 309.179688 1109.988281 C 322.523438 1112.339844 335.863281 1115.085938 349.59375 1117.441406 C 367.644531 1120.972656 385.691406 1124.113281 403.347656 1127.644531 C 404.917969 1128.035156 406.488281 1128.429688 408.058594 1128.429688 C 436.308594 1131.175781 464.164062 1133.527344 492.414062 1137.058594 C 547.738281 1144.121094 603.84375 1143.339844 659.5625 1143.730469 C 689.773438 1143.730469 719.59375 1143.339844 749.804688 1142.160156 C 771.382812 1141.375 793.355469 1139.808594 814.9375 1137.453125 C 836.515625 1135.097656 858.097656 1131.566406 879.675781 1128.429688 C 880.070312 1128.429688 880.070312 1128.429688 880.460938 1128.429688 C 898.902344 1126.074219 917.734375 1123.71875 936.175781 1120.582031 C 951.476562 1117.835938 966.386719 1114.304688 981.691406 1111.164062 C 984.828125 1110.378906 987.96875 1110.378906 990.714844 1109.203125 C 992.675781 1108.417969 993.851562 1106.457031 995.421875 1104.886719 C 993.851562 1103.316406 991.890625 1100.570312 990.320312 1100.570312 C 970.3125 1099 949.910156 1097.824219 929.898438 1096.648438 C 927.9375 1097.039062 925.191406 1096.648438 921.660156 1096.648438 Z M 921.660156 1096.648438 " fill-opacity="1" fill-rule="nonzero"/></svg>